<svg xmlns="http://www.w3.org/2000/svg" width="105" height="105" viewBox="0 0 105 105"><g transform="translate(-1395.5 -119.5)"><g transform="translate(1398 122)"><rect width="100" height="100" fill="#f7df1e" stroke="#fff" stroke-width="5"/><path d="M207,318.86c2.028,3.311,4.667,5.745,9.333,5.745,3.92,0,6.425-1.959,6.425-4.667,0-3.244-2.573-4.393-6.888-6.281l-2.365-1.015c-6.827-2.909-11.363-6.552-11.363-14.256,0-7.1,5.407-12.5,13.856-12.5,6.015,0,10.34,2.094,13.457,7.575l-7.368,4.731c-1.622-2.909-3.372-4.055-6.089-4.055-2.771,0-4.528,1.758-4.528,4.055,0,2.838,1.758,3.987,5.817,5.745l2.365,1.013c8.039,3.447,12.578,6.962,12.578,14.863,0,8.518-6.692,13.185-15.678,13.185-8.787,0-14.463-4.187-17.241-9.675Zm-33.422.82c1.486,2.637,2.838,4.866,6.089,4.866,3.108,0,5.069-1.216,5.069-5.945V286.43H194.2v32.3c0,9.8-5.744,14.256-14.128,14.256-7.575,0-11.962-3.92-14.193-8.642Z" transform="translate(-140.37 -241.2)" stroke="#fff" stroke-width="5"/></g><g transform="translate(1398 122)"><rect width="100" height="100" fill="#f7df1e"/><path d="M207,318.86c2.028,3.311,4.667,5.745,9.333,5.745,3.92,0,6.425-1.959,6.425-4.667,0-3.244-2.573-4.393-6.888-6.281l-2.365-1.015c-6.827-2.909-11.363-6.552-11.363-14.256,0-7.1,5.407-12.5,13.856-12.5,6.015,0,10.34,2.094,13.457,7.575l-7.368,4.731c-1.622-2.909-3.372-4.055-6.089-4.055-2.771,0-4.528,1.758-4.528,4.055,0,2.838,1.758,3.987,5.817,5.745l2.365,1.013c8.039,3.447,12.578,6.962,12.578,14.863,0,8.518-6.692,13.185-15.678,13.185-8.787,0-14.463-4.187-17.241-9.675Zm-33.422.82c1.486,2.637,2.838,4.866,6.089,4.866,3.108,0,5.069-1.216,5.069-5.945V286.43H194.2v32.3c0,9.8-5.744,14.256-14.128,14.256-7.575,0-11.962-3.92-14.193-8.642Z" transform="translate(-140.37 -241.2)"/></g></g></svg>